<mxfile host="app.diagrams.net" modified="2022-01-14T05:54:18.287Z" agent="5.0 (Macintosh; Intel Mac OS X 10_15_6) AppleWebKit/537.36 (KHTML, like Gecko) Chrome/97.0.4692.71 Safari/537.36" etag="oKMEHPtJREB5DcwofQuo" version="16.2.6" type="github">
  <diagram id="9u_XWbpAGHCA6zbfBGv7" name="Page-1">
    <mxGraphModel dx="631" dy="431" grid="1" gridSize="10" guides="1" tooltips="1" connect="1" arrows="1" fold="1" page="1" pageScale="1" pageWidth="827" pageHeight="1169" math="0" shadow="0">
      <root>
        <mxCell id="0" />
        <mxCell id="1" parent="0" />
        <mxCell id="c0cfpY2GFUZFO0pSCdP8-7" style="edgeStyle=orthogonalEdgeStyle;rounded=0;orthogonalLoop=1;jettySize=auto;html=1;exitX=0.25;exitY=0;exitDx=0;exitDy=0;entryX=0.336;entryY=1.007;entryDx=0;entryDy=0;entryPerimeter=0;" edge="1" parent="1" source="c0cfpY2GFUZFO0pSCdP8-1" target="c0cfpY2GFUZFO0pSCdP8-2">
          <mxGeometry relative="1" as="geometry" />
        </mxCell>
        <mxCell id="c0cfpY2GFUZFO0pSCdP8-9" style="edgeStyle=orthogonalEdgeStyle;rounded=0;orthogonalLoop=1;jettySize=auto;html=1;exitX=1;exitY=0.5;exitDx=0;exitDy=0;entryX=0;entryY=0.5;entryDx=0;entryDy=0;" edge="1" parent="1" source="c0cfpY2GFUZFO0pSCdP8-1" target="c0cfpY2GFUZFO0pSCdP8-4">
          <mxGeometry relative="1" as="geometry" />
        </mxCell>
        <mxCell id="c0cfpY2GFUZFO0pSCdP8-1" value="&lt;b&gt;Print Service&lt;/b&gt;" style="rounded=0;whiteSpace=wrap;html=1;" vertex="1" parent="1">
          <mxGeometry x="340" y="270" width="120" height="60" as="geometry" />
        </mxCell>
        <mxCell id="c0cfpY2GFUZFO0pSCdP8-6" style="edgeStyle=orthogonalEdgeStyle;rounded=0;orthogonalLoop=1;jettySize=auto;html=1;exitX=0.75;exitY=1;exitDx=0;exitDy=0;entryX=0.669;entryY=0.028;entryDx=0;entryDy=0;entryPerimeter=0;" edge="1" parent="1" source="c0cfpY2GFUZFO0pSCdP8-2" target="c0cfpY2GFUZFO0pSCdP8-1">
          <mxGeometry relative="1" as="geometry" />
        </mxCell>
        <mxCell id="c0cfpY2GFUZFO0pSCdP8-2" value="Websub" style="rounded=0;whiteSpace=wrap;html=1;" vertex="1" parent="1">
          <mxGeometry x="330" y="140" width="120" height="50" as="geometry" />
        </mxCell>
        <mxCell id="c0cfpY2GFUZFO0pSCdP8-8" style="edgeStyle=orthogonalEdgeStyle;rounded=0;orthogonalLoop=1;jettySize=auto;html=1;exitX=1;exitY=0.5;exitDx=0;exitDy=0;entryX=0;entryY=0.5;entryDx=0;entryDy=0;" edge="1" parent="1" source="c0cfpY2GFUZFO0pSCdP8-3" target="c0cfpY2GFUZFO0pSCdP8-1">
          <mxGeometry relative="1" as="geometry" />
        </mxCell>
        <mxCell id="c0cfpY2GFUZFO0pSCdP8-3" value="Masterdata Service" style="rounded=0;whiteSpace=wrap;html=1;" vertex="1" parent="1">
          <mxGeometry x="140" y="275" width="120" height="50" as="geometry" />
        </mxCell>
        <mxCell id="c0cfpY2GFUZFO0pSCdP8-4" value="Datashare" style="rounded=0;whiteSpace=wrap;html=1;" vertex="1" parent="1">
          <mxGeometry x="560" y="275" width="100" height="50" as="geometry" />
        </mxCell>
        <mxCell id="c0cfpY2GFUZFO0pSCdP8-5" style="edgeStyle=orthogonalEdgeStyle;rounded=0;orthogonalLoop=1;jettySize=auto;html=1;exitX=0.5;exitY=1;exitDx=0;exitDy=0;" edge="1" parent="1" source="c0cfpY2GFUZFO0pSCdP8-2" target="c0cfpY2GFUZFO0pSCdP8-2">
          <mxGeometry relative="1" as="geometry" />
        </mxCell>
        <mxCell id="c0cfpY2GFUZFO0pSCdP8-10" value="Print events" style="text;html=1;strokeColor=none;fillColor=none;align=center;verticalAlign=middle;whiteSpace=wrap;rounded=0;" vertex="1" parent="1">
          <mxGeometry x="410" y="220" width="60" height="30" as="geometry" />
        </mxCell>
        <mxCell id="c0cfpY2GFUZFO0pSCdP8-11" value="Status updates" style="text;html=1;strokeColor=none;fillColor=none;align=center;verticalAlign=middle;whiteSpace=wrap;rounded=0;" vertex="1" parent="1">
          <mxGeometry x="310" y="220" width="60" height="30" as="geometry" />
        </mxCell>
        <mxCell id="c0cfpY2GFUZFO0pSCdP8-12" value="Templates" style="text;html=1;strokeColor=none;fillColor=none;align=center;verticalAlign=middle;whiteSpace=wrap;rounded=0;" vertex="1" parent="1">
          <mxGeometry x="270" y="275" width="60" height="30" as="geometry" />
        </mxCell>
        <mxCell id="c0cfpY2GFUZFO0pSCdP8-13" value="PDF" style="text;html=1;strokeColor=none;fillColor=none;align=center;verticalAlign=middle;whiteSpace=wrap;rounded=0;" vertex="1" parent="1">
          <mxGeometry x="480" y="275" width="60" height="30" as="geometry" />
        </mxCell>
        <mxCell id="c0cfpY2GFUZFO0pSCdP8-14" value="4" style="ellipse;whiteSpace=wrap;html=1;aspect=fixed;" vertex="1" parent="1">
          <mxGeometry x="340" y="200" width="20" height="20" as="geometry" />
        </mxCell>
        <mxCell id="c0cfpY2GFUZFO0pSCdP8-15" value="1" style="ellipse;whiteSpace=wrap;html=1;aspect=fixed;" vertex="1" parent="1">
          <mxGeometry x="430" y="200" width="20" height="20" as="geometry" />
        </mxCell>
        <mxCell id="c0cfpY2GFUZFO0pSCdP8-17" value="2" style="ellipse;whiteSpace=wrap;html=1;aspect=fixed;" vertex="1" parent="1">
          <mxGeometry x="290" y="305" width="20" height="20" as="geometry" />
        </mxCell>
        <mxCell id="c0cfpY2GFUZFO0pSCdP8-18" value="3" style="ellipse;whiteSpace=wrap;html=1;aspect=fixed;" vertex="1" parent="1">
          <mxGeometry x="500" y="305" width="20" height="20" as="geometry" />
        </mxCell>
      </root>
    </mxGraphModel>
  </diagram>
</mxfile>
